<?xml version="1.0" encoding="utf-8"?>
<!-- Generator: Adobe Illustrator 16.0.0, SVG Export Plug-In . SVG Version: 6.00 Build 0)  -->
<!DOCTYPE svg PUBLIC "-//W3C//DTD SVG 1.1//EN" "http://www.w3.org/Graphics/SVG/1.1/DTD/svg11.dtd">
<svg version="1.1" id="Layer_1" xmlns="http://www.w3.org/2000/svg" xmlns:xlink="http://www.w3.org/1999/xlink" x="0px" y="0px"
	 width="28px" height="28px" viewBox="0 0 28 28" enable-background="new 0 0 28 28" xml:space="preserve">
<path fill="#74BCDD" d="M11.792,15.811v0.756c0,0.817-0.662,1.479-1.479,1.479H6.969v-3.578h3.48
	C11.19,14.467,11.792,15.068,11.792,15.811z M11.24,11.517v-0.565c0-0.574-0.465-1.04-1.04-1.04H6.969v2.645h3.232
	C10.775,12.557,11.24,12.091,11.24,11.517z M28,0v28H0V0H28z M16.728,9.869h4.991V8.511h-4.991V9.869z M14.359,16.037
	c0-2.179-1.923-2.857-1.923-2.857s1.556-0.386,1.556-2.439c0-2.129-1.443-3.134-3.423-3.134c-2.405,0-6.167,0-6.167,0v12.786h5.8
	c0,0,1.471,0,2.546-0.791C13.821,18.809,14.359,17.791,14.359,16.037z M19.647,10.704c-4.516,0-4.782,3.833-4.782,5.191
	c0,1.358,0.793,4.414,4.35,4.414c3.313,0,3.954-1.571,4.152-2.122c0.196-0.553,0.142-1.02,0.142-1.02h-2.094
	c0,0,0.169,1.146-1.974,1.146s-2.045-2.009-2.045-2.009h6.168C23.565,16.306,24.223,10.704,19.647,10.704z M19.517,12.571
	c-1.896,0-2.037,1.854-2.037,1.854h3.861C21.341,14.425,21.411,12.571,19.517,12.571z"/>
</svg>
