<?xml version="1.0" encoding="utf-8"?>
<!-- Generator: Adobe Illustrator 16.0.0, SVG Export Plug-In . SVG Version: 6.00 Build 0)  -->
<!DOCTYPE svg PUBLIC "-//W3C//DTD SVG 1.1//EN" "http://www.w3.org/Graphics/SVG/1.1/DTD/svg11.dtd">
<svg version="1.1" id="Layer_1" xmlns="http://www.w3.org/2000/svg" xmlns:xlink="http://www.w3.org/1999/xlink" x="0px" y="0px"
	 width="28px" height="28px" viewBox="0 0 28 28" enable-background="new 0 0 28 28" xml:space="preserve">
<g>
	<path fill="#74BCDD" d="M0,0v28h28V0H0z M20.784,10.519c0.008,0.151,0.011,0.302,0.011,0.455c0,4.624-3.519,9.96-9.96,9.96
		c-1.978,0-3.816-0.577-5.366-1.572c0.275,0.03,0.553,0.048,0.835,0.048c1.641,0,3.149-0.56,4.347-1.498
		c-1.531-0.027-2.825-1.039-3.269-2.429c0.213,0.041,0.432,0.062,0.658,0.062c0.319,0,0.629-0.043,0.922-0.125
		c-1.6-0.322-2.808-1.736-2.808-3.433c0-0.014,0-0.028,0-0.043c0.473,0.262,1.013,0.419,1.586,0.438
		c-0.939-0.627-1.557-1.699-1.557-2.916c0-0.64,0.173-1.243,0.475-1.758c1.726,2.117,4.306,3.513,7.214,3.657
		c-0.059-0.256-0.091-0.523-0.091-0.797c0-1.933,1.568-3.5,3.502-3.5c1.003,0,1.914,0.424,2.554,1.106
		c0.797-0.157,1.547-0.45,2.224-0.85c-0.263,0.818-0.817,1.504-1.539,1.937c0.708-0.085,1.382-0.273,2.01-0.55
		C22.063,9.412,21.469,10.026,20.784,10.519z"/>
</g>
</svg>
