<?xml version="1.0" encoding="utf-8"?>
<!-- Generator: Adobe Illustrator 16.0.0, SVG Export Plug-In . SVG Version: 6.00 Build 0)  -->
<!DOCTYPE svg PUBLIC "-//W3C//DTD SVG 1.1//EN" "http://www.w3.org/Graphics/SVG/1.1/DTD/svg11.dtd">
<svg version="1.1" id="Layer_1" xmlns="http://www.w3.org/2000/svg" xmlns:xlink="http://www.w3.org/1999/xlink" x="0px" y="0px"
	 width="28px" height="28px" viewBox="0 0 28 28" enable-background="new 0 0 28 28" xml:space="preserve">
<path fill="#74BCDD" d="M0,0v28h28V0H0z M9.4,22.241H6.115V10.772H9.4V22.241L9.4,22.241z M7.79,9.465
	c-1.102,0-1.999-0.831-1.999-1.853c0-1.021,0.897-1.853,1.999-1.853S9.789,6.59,9.789,7.612C9.789,8.634,8.892,9.465,7.79,9.465z
	 M22.209,22.241h-3.367v-6.802c0.001-0.014,0.051-1.094-0.562-1.739c-0.305-0.321-0.725-0.484-1.248-0.484
	c-1.316,0-1.981,0.948-2.263,1.522v7.502h-3.285V10.772h3.285v0.969c1.076-0.873,2.283-1.333,3.5-1.333
	c3.115,0,3.939,2.434,3.939,3.721V22.241L22.209,22.241z"/>
</svg>
