<?xml version="1.0" encoding="utf-8"?>
<!-- Generator: Adobe Illustrator 16.0.0, SVG Export Plug-In . SVG Version: 6.00 Build 0)  -->
<!DOCTYPE svg PUBLIC "-//W3C//DTD SVG 1.1//EN" "http://www.w3.org/Graphics/SVG/1.1/DTD/svg11.dtd">
<svg version="1.1" id="Layer_1" xmlns="http://www.w3.org/2000/svg" xmlns:xlink="http://www.w3.org/1999/xlink" x="0px" y="0px"
	 width="28px" height="28px" viewBox="0 0 28 28" enable-background="new 0 0 28 28" xml:space="preserve">
<g>
	<path fill="#74BCDD" d="M15.81,24.08c0.757,0.823,0.3,2.535,0.328,3.92h-0.449C15.638,26.728,15.856,25.233,15.81,24.08z
		 M5.22,18.08c-0.702-2.202-0.459-5.7,1.072-7.002C5.858,9.985,5.993,8.196,6.561,7.344c1.71,0.077,2.747,0.822,3.82,1.535
		c1.331-0.38,2.733-0.567,4.557-0.468c0.768,0.044,1.567,0.388,2.145,0.333c0.565-0.053,1.189-0.689,1.741-0.931
		c0.717-0.318,1.324-0.438,2.145-0.468c0.394,0.894,0.648,2.381,0.27,3.468c1.557,1.331,2.094,4.562,1.341,7.201
		c1.769,0.135,3.802,0.012,5.419,0.297V0H0v18.321C1.541,18.042,3.403,18.083,5.22,18.08z M22.379,18.682
		c1.962,0.153,3.9,0.331,5.621,0.728v-0.954c-1.415-0.201-3.082-0.42-4.683-0.311C22.928,18.174,22.35,18.133,22.379,18.682z
		 M12.259,24.08c-0.827,0.626-0.274,2.479-0.334,3.92h0.399C12.349,26.756,12.094,25.317,12.259,24.08z M3.344,18.144
		C2.293,18.192,1.052,18.299,0,18.435v0.996c1.647-0.431,3.54-0.62,5.556-0.685C5.41,17.872,4.135,18.111,3.344,18.144z
		 M22.379,18.814c-0.996,1.963-2.999,2.93-5.765,3.132c0.298,0.646,0.866,0.894,1.006,1.934c0.165,1.25-0.136,2.956,0.008,4.12H28
		v-8.504C26.293,19.2,24.361,18.867,22.379,18.814z M10.381,25.682c-1.929,0.384-3.425-0.055-4.156-1.267
		c-0.328-0.543-0.41-1.185-0.804-1.666c-0.395-0.484-1.022-0.547-1.206-1.199c2.388-0.574,2.479,2.459,4.625,2.533
		c0.658,0.024,0.999-0.19,1.608-0.332c0.17-0.766,0.536-1.334,1.073-1.732c-2.669-0.366-4.873-1.196-5.898-3.199
		C3.613,18.918,1.751,19.166,0,19.524v8.48h10.408C10.444,27.32,10.287,26.508,10.381,25.682z M14.233,28
		c-0.08-1.33,0.073-2.916-0.165-4.12c-0.475,0.033-0.267,0.71-0.269,1.002c-0.005,0.992,0.071,2.125,0.004,3.117L14.233,28
		L14.233,28z"/>
</g>
</svg>
